      <svg id="mySvg" width="400" height="400" xmlns="http://www.w3.org/2000/svg">
    <rect width="400" height="400" fill="white"></rect>

    <line x1="200" y1="0" x2="200" y2="400" stroke="black" stroke-width="2"></line>
    <line x1="0" y1="200" x2="400" y2="200" stroke="black" stroke-width="2"></line>

    <polygon points="195,5 205,5 200,0" fill="black"></polygon>
    <text x="208" y="8" font-family="Arial" font-size="12" fill="black">
        y
    </text>
    <polygon points="400,200 395,205 395,195" fill="black"></polygon>
    <text x="393" y="190" font-family="Arial" font-size="12" fill="black">
        x
    </text>


    <!-- Ось X -->
    <line x1="35" y1="195" x2="35" y2="205" stroke="black" stroke-width="2"></line>
    <text x="30" y="190" font-family="Arial" font-size="12" fill="black">-5</text>
    <line x1="68" y1="195" x2="68" y2="205" stroke="black" stroke-width="2"></line>
    <text x="63" y="190" font-family="Arial" font-size="12" fill="black">-4</text>
    <line x1="101" y1="195" x2="101" y2="205" stroke="black" stroke-width="2"></line>
    <text x="96" y="190" font-family="Arial" font-size="12" fill="black">-3</text>
    <line x1="134" y1="195" x2="134" y2="205" stroke="black" stroke-width="2"></line>
    <text x="129" y="190" font-family="Arial" font-size="12" fill="black">-2</text>
    <line x1="167" y1="195" x2="167" y2="205" stroke="black" stroke-width="2"></line>
    <text x="162" y="190" font-family="Arial" font-size="12" fill="black">-1</text>

    <line x1="233" y1="195" x2="233" y2="205" stroke="black" stroke-width="2"></line>
    <text x="229" y="190" font-family="Arial" font-size="12" fill="black">1</text>
    <line x1="266" y1="195" x2="266" y2="205" stroke="black" stroke-width="2"></line>
    <text x="262" y="190" font-family="Arial" font-size="12" fill="black">2</text>
    <line x1="299" y1="195" x2="299" y2="205" stroke="black" stroke-width="2"></line>
    <text x="295" y="190" font-family="Arial" font-size="12" fill="black">3</text>
    <line x1="332" y1="195" x2="332" y2="205" stroke="black" stroke-width="2"></line>
    <text x="328" y="190" font-family="Arial" font-size="12" fill="black">4</text>
    <line x1="365" y1="195" x2="365" y2="205" stroke="black" stroke-width="2"></line>
    <text x="361" y="190" font-family="Arial" font-size="12" fill="black">5</text>


    <!-- Ось Y -->
    <line x1="195" y1="35" x2="205" y2="35" stroke="black" stroke-width="2"></line>
    <text x="207" y="39" font-family="Arial" font-size="12" fill="black">5</text>
    <line x1="195" y1="68" x2="205" y2="68" stroke="black" stroke-width="2"></line>
    <text x="207" y="72" font-family="Arial" font-size="12" fill="black">4</text>
    <line x1="195" y1="101" x2="205" y2="101" stroke="black" stroke-width="2"></line>
    <text x="207" y="105" font-family="Arial" font-size="12" fill="black">3</text>
    <line x1="195" y1="134" x2="205" y2="134" stroke="black" stroke-width="2"></line>
    <text x="207" y="138" font-family="Arial" font-size="12" fill="black">2</text>
    <line x1="195" y1="167" x2="205" y2="167" stroke="black" stroke-width="2"></line>
    <text x="207" y="171" font-family="Arial" font-size="12" fill="black">1</text>

    <line x1="195" y1="233" x2="205" y2="233" stroke="black" stroke-width="2"></line>
    <text x="207" y="236" font-family="Arial" font-size="12" fill="black">-1</text>
    <line x1="195" y1="266" x2="205" y2="266" stroke="black" stroke-width="2"></line>
    <text x="207" y="269" font-family="Arial" font-size="12" fill="black">-2</text>
    <line x1="195" y1="299" x2="205" y2="299" stroke="black" stroke-width="2"></line>
    <text x="207" y="302" font-family="Arial" font-size="12" fill="black">-3</text>
    <line x1="195" y1="332" x2="205" y2="332" stroke="black" stroke-width="2"></line>
    <text x="207" y="335" font-family="Arial" font-size="12" fill="black">-4</text>
    <line x1="195" y1="365" x2="205" y2="365" stroke="black" stroke-width="2"></line>
    <text x="207" y="368" font-family="Arial" font-size="12" fill="black">-5</text>


</svg>